%TF.GenerationSoftware,KiCad,Pcbnew,(5.1.6)-1*%
%TF.CreationDate,2020-07-09T15:12:22-03:00*%
%TF.ProjectId,driver-breakout-module,64726976-6572-42d6-9272-65616b6f7574,rev?*%
%TF.SameCoordinates,Original*%
%TF.FileFunction,Copper,L2,Bot*%
%TF.FilePolarity,Positive*%
%FSLAX46Y46*%
G04 Gerber Fmt 4.6, Leading zero omitted, Abs format (unit mm)*
G04 Created by KiCad (PCBNEW (5.1.6)-1) date 2020-07-09 15:12:22*
%MOMM*%
%LPD*%
G01*
G04 APERTURE LIST*
%TA.AperFunction,ComponentPad*%
%ADD10C,3.000000*%
%TD*%
%TA.AperFunction,ComponentPad*%
%ADD11C,1.500000*%
%TD*%
%TA.AperFunction,ComponentPad*%
%ADD12R,1.500000X1.500000*%
%TD*%
%TA.AperFunction,ComponentPad*%
%ADD13R,1.700000X1.700000*%
%TD*%
%TA.AperFunction,ComponentPad*%
%ADD14O,1.700000X1.700000*%
%TD*%
%TA.AperFunction,Conductor*%
%ADD15C,0.250000*%
%TD*%
%TA.AperFunction,Conductor*%
%ADD16C,0.254000*%
%TD*%
G04 APERTURE END LIST*
D10*
%TO.P,J1,SH*%
%TO.N,Net-(J1-PadSH)*%
X147830000Y-98529000D03*
D11*
%TO.P,J1,3*%
%TO.N,Net-(J1-Pad3)*%
X138430000Y-108204000D03*
%TO.P,J1,5*%
%TO.N,Net-(J1-Pad5)*%
X138430000Y-105664000D03*
%TO.P,J1,4*%
%TO.N,Net-(J1-Pad4)*%
X135890000Y-106934000D03*
%TO.P,J1,7*%
%TO.N,+24V*%
X138430000Y-103124000D03*
D12*
%TO.P,J1,1*%
%TO.N,Net-(J1-Pad1)*%
X138430000Y-110744000D03*
D11*
%TO.P,J1,2*%
%TO.N,Net-(J1-Pad2)*%
X135890000Y-109474000D03*
D10*
%TO.P,J1,SH*%
%TO.N,Net-(J1-PadSH)*%
X147830000Y-114069000D03*
D11*
%TO.P,J1,8*%
%TO.N,GND*%
X135890000Y-101854000D03*
%TO.P,J1,6*%
%TO.N,+24V*%
X135890000Y-104394000D03*
%TD*%
D13*
%TO.P,JP1,1*%
%TO.N,Net-(J1-PadSH)*%
X144272000Y-93218000D03*
D14*
%TO.P,JP1,2*%
%TO.N,GND*%
X141732000Y-93218000D03*
%TD*%
D13*
%TO.P,J2,1*%
%TO.N,Net-(J2-Pad1)*%
X126619000Y-83312000D03*
D14*
%TO.P,J2,2*%
%TO.N,Net-(J1-Pad3)*%
X126619000Y-88392000D03*
%TO.P,J2,3*%
%TO.N,Net-(J2-Pad3)*%
X126619000Y-93472000D03*
%TO.P,J2,4*%
%TO.N,Net-(J1-Pad2)*%
X126619000Y-98552000D03*
%TO.P,J2,5*%
%TO.N,Net-(J2-Pad5)*%
X126619000Y-103632000D03*
%TO.P,J2,6*%
%TO.N,Net-(J1-Pad1)*%
X126619000Y-108712000D03*
%TO.P,J2,7*%
%TO.N,Net-(J2-Pad7)*%
X126619000Y-113792000D03*
%TO.P,J2,8*%
%TO.N,GND*%
X126619000Y-118872000D03*
%TO.P,J2,9*%
%TO.N,Net-(J2-Pad9)*%
X126619000Y-123952000D03*
%TO.P,J2,10*%
%TO.N,GND*%
X126619000Y-129032000D03*
%TD*%
D15*
%TO.N,GND*%
X126619000Y-118872000D02*
X126619000Y-120047300D01*
X126619000Y-129032000D02*
X126619000Y-127856700D01*
X126619000Y-127856700D02*
X125443700Y-126681400D01*
X125443700Y-126681400D02*
X125443700Y-121222600D01*
X125443700Y-121222600D02*
X126619000Y-120047300D01*
X126619000Y-118872000D02*
X126619000Y-117696700D01*
X126619000Y-117696700D02*
X125398400Y-116476100D01*
X125398400Y-116476100D02*
X125398400Y-108250600D01*
X125398400Y-108250600D02*
X131795000Y-101854000D01*
X131795000Y-101854000D02*
X135890000Y-101854000D01*
%TO.N,Net-(J1-Pad3)*%
X126619000Y-88392000D02*
X126619000Y-89567300D01*
X126619000Y-89567300D02*
X136966400Y-99914700D01*
X136966400Y-99914700D02*
X136966400Y-106740400D01*
X136966400Y-106740400D02*
X138430000Y-108204000D01*
%TO.N,Net-(J1-Pad1)*%
X126619000Y-108712000D02*
X127794300Y-108712000D01*
X127794300Y-108712000D02*
X129826300Y-110744000D01*
X129826300Y-110744000D02*
X138430000Y-110744000D01*
%TO.N,Net-(J1-PadSH)*%
X144272000Y-93218000D02*
X144272000Y-94393300D01*
X144272000Y-94393300D02*
X147830000Y-97951300D01*
X147830000Y-97951300D02*
X147830000Y-98529000D01*
%TD*%
D16*
%TO.N,GND*%
G36*
X153290001Y-131290000D02*
G01*
X124710000Y-131290000D01*
X124710000Y-129388890D01*
X125177524Y-129388890D01*
X125222175Y-129536099D01*
X125347359Y-129798920D01*
X125521412Y-130032269D01*
X125737645Y-130227178D01*
X125987748Y-130376157D01*
X126262109Y-130473481D01*
X126492000Y-130352814D01*
X126492000Y-129159000D01*
X126746000Y-129159000D01*
X126746000Y-130352814D01*
X126975891Y-130473481D01*
X127250252Y-130376157D01*
X127500355Y-130227178D01*
X127716588Y-130032269D01*
X127890641Y-129798920D01*
X128015825Y-129536099D01*
X128060476Y-129388890D01*
X127939155Y-129159000D01*
X126746000Y-129159000D01*
X126492000Y-129159000D01*
X125298845Y-129159000D01*
X125177524Y-129388890D01*
X124710000Y-129388890D01*
X124710000Y-128675110D01*
X125177524Y-128675110D01*
X125298845Y-128905000D01*
X126492000Y-128905000D01*
X126492000Y-127711186D01*
X126746000Y-127711186D01*
X126746000Y-128905000D01*
X127939155Y-128905000D01*
X128060476Y-128675110D01*
X128015825Y-128527901D01*
X127890641Y-128265080D01*
X127716588Y-128031731D01*
X127500355Y-127836822D01*
X127250252Y-127687843D01*
X126975891Y-127590519D01*
X126746000Y-127711186D01*
X126492000Y-127711186D01*
X126262109Y-127590519D01*
X125987748Y-127687843D01*
X125737645Y-127836822D01*
X125521412Y-128031731D01*
X125347359Y-128265080D01*
X125222175Y-128527901D01*
X125177524Y-128675110D01*
X124710000Y-128675110D01*
X124710000Y-123805740D01*
X125134000Y-123805740D01*
X125134000Y-124098260D01*
X125191068Y-124385158D01*
X125303010Y-124655411D01*
X125465525Y-124898632D01*
X125672368Y-125105475D01*
X125915589Y-125267990D01*
X126185842Y-125379932D01*
X126472740Y-125437000D01*
X126765260Y-125437000D01*
X127052158Y-125379932D01*
X127322411Y-125267990D01*
X127565632Y-125105475D01*
X127772475Y-124898632D01*
X127934990Y-124655411D01*
X128046932Y-124385158D01*
X128104000Y-124098260D01*
X128104000Y-123805740D01*
X128046932Y-123518842D01*
X127934990Y-123248589D01*
X127772475Y-123005368D01*
X127565632Y-122798525D01*
X127322411Y-122636010D01*
X127052158Y-122524068D01*
X126765260Y-122467000D01*
X126472740Y-122467000D01*
X126185842Y-122524068D01*
X125915589Y-122636010D01*
X125672368Y-122798525D01*
X125465525Y-123005368D01*
X125303010Y-123248589D01*
X125191068Y-123518842D01*
X125134000Y-123805740D01*
X124710000Y-123805740D01*
X124710000Y-119228890D01*
X125177524Y-119228890D01*
X125222175Y-119376099D01*
X125347359Y-119638920D01*
X125521412Y-119872269D01*
X125737645Y-120067178D01*
X125987748Y-120216157D01*
X126262109Y-120313481D01*
X126492000Y-120192814D01*
X126492000Y-118999000D01*
X126746000Y-118999000D01*
X126746000Y-120192814D01*
X126975891Y-120313481D01*
X127250252Y-120216157D01*
X127500355Y-120067178D01*
X127716588Y-119872269D01*
X127890641Y-119638920D01*
X128015825Y-119376099D01*
X128060476Y-119228890D01*
X127939155Y-118999000D01*
X126746000Y-118999000D01*
X126492000Y-118999000D01*
X125298845Y-118999000D01*
X125177524Y-119228890D01*
X124710000Y-119228890D01*
X124710000Y-118515110D01*
X125177524Y-118515110D01*
X125298845Y-118745000D01*
X126492000Y-118745000D01*
X126492000Y-117551186D01*
X126746000Y-117551186D01*
X126746000Y-118745000D01*
X127939155Y-118745000D01*
X128060476Y-118515110D01*
X128015825Y-118367901D01*
X127890641Y-118105080D01*
X127716588Y-117871731D01*
X127500355Y-117676822D01*
X127250252Y-117527843D01*
X126975891Y-117430519D01*
X126746000Y-117551186D01*
X126492000Y-117551186D01*
X126262109Y-117430519D01*
X125987748Y-117527843D01*
X125737645Y-117676822D01*
X125521412Y-117871731D01*
X125347359Y-118105080D01*
X125222175Y-118367901D01*
X125177524Y-118515110D01*
X124710000Y-118515110D01*
X124710000Y-113645740D01*
X125134000Y-113645740D01*
X125134000Y-113938260D01*
X125191068Y-114225158D01*
X125303010Y-114495411D01*
X125465525Y-114738632D01*
X125672368Y-114945475D01*
X125915589Y-115107990D01*
X126185842Y-115219932D01*
X126472740Y-115277000D01*
X126765260Y-115277000D01*
X127052158Y-115219932D01*
X127322411Y-115107990D01*
X127565632Y-114945475D01*
X127772475Y-114738632D01*
X127934990Y-114495411D01*
X128046932Y-114225158D01*
X128104000Y-113938260D01*
X128104000Y-113645740D01*
X128046932Y-113358842D01*
X127934990Y-113088589D01*
X127772475Y-112845368D01*
X127565632Y-112638525D01*
X127322411Y-112476010D01*
X127052158Y-112364068D01*
X126765260Y-112307000D01*
X126472740Y-112307000D01*
X126185842Y-112364068D01*
X125915589Y-112476010D01*
X125672368Y-112638525D01*
X125465525Y-112845368D01*
X125303010Y-113088589D01*
X125191068Y-113358842D01*
X125134000Y-113645740D01*
X124710000Y-113645740D01*
X124710000Y-103485740D01*
X125134000Y-103485740D01*
X125134000Y-103778260D01*
X125191068Y-104065158D01*
X125303010Y-104335411D01*
X125465525Y-104578632D01*
X125672368Y-104785475D01*
X125915589Y-104947990D01*
X126185842Y-105059932D01*
X126472740Y-105117000D01*
X126765260Y-105117000D01*
X127052158Y-105059932D01*
X127322411Y-104947990D01*
X127565632Y-104785475D01*
X127772475Y-104578632D01*
X127934990Y-104335411D01*
X128046932Y-104065158D01*
X128104000Y-103778260D01*
X128104000Y-103485740D01*
X128046932Y-103198842D01*
X127934990Y-102928589D01*
X127772475Y-102685368D01*
X127565632Y-102478525D01*
X127322411Y-102316010D01*
X127052158Y-102204068D01*
X126765260Y-102147000D01*
X126472740Y-102147000D01*
X126185842Y-102204068D01*
X125915589Y-102316010D01*
X125672368Y-102478525D01*
X125465525Y-102685368D01*
X125303010Y-102928589D01*
X125191068Y-103198842D01*
X125134000Y-103485740D01*
X124710000Y-103485740D01*
X124710000Y-101926492D01*
X134500188Y-101926492D01*
X134541035Y-102196238D01*
X134633723Y-102452832D01*
X134694140Y-102565863D01*
X134933007Y-102631388D01*
X135710395Y-101854000D01*
X134933007Y-101076612D01*
X134694140Y-101142137D01*
X134578240Y-101389116D01*
X134512750Y-101653960D01*
X134500188Y-101926492D01*
X124710000Y-101926492D01*
X124710000Y-98405740D01*
X125134000Y-98405740D01*
X125134000Y-98698260D01*
X125191068Y-98985158D01*
X125303010Y-99255411D01*
X125465525Y-99498632D01*
X125672368Y-99705475D01*
X125915589Y-99867990D01*
X126185842Y-99979932D01*
X126472740Y-100037000D01*
X126765260Y-100037000D01*
X127052158Y-99979932D01*
X127322411Y-99867990D01*
X127565632Y-99705475D01*
X127772475Y-99498632D01*
X127934990Y-99255411D01*
X128046932Y-98985158D01*
X128104000Y-98698260D01*
X128104000Y-98405740D01*
X128046932Y-98118842D01*
X127934990Y-97848589D01*
X127772475Y-97605368D01*
X127565632Y-97398525D01*
X127322411Y-97236010D01*
X127052158Y-97124068D01*
X126765260Y-97067000D01*
X126472740Y-97067000D01*
X126185842Y-97124068D01*
X125915589Y-97236010D01*
X125672368Y-97398525D01*
X125465525Y-97605368D01*
X125303010Y-97848589D01*
X125191068Y-98118842D01*
X125134000Y-98405740D01*
X124710000Y-98405740D01*
X124710000Y-93325740D01*
X125134000Y-93325740D01*
X125134000Y-93618260D01*
X125191068Y-93905158D01*
X125303010Y-94175411D01*
X125465525Y-94418632D01*
X125672368Y-94625475D01*
X125915589Y-94787990D01*
X126185842Y-94899932D01*
X126472740Y-94957000D01*
X126765260Y-94957000D01*
X127052158Y-94899932D01*
X127322411Y-94787990D01*
X127565632Y-94625475D01*
X127772475Y-94418632D01*
X127934990Y-94175411D01*
X128046932Y-93905158D01*
X128104000Y-93618260D01*
X128104000Y-93325740D01*
X128046932Y-93038842D01*
X127934990Y-92768589D01*
X127772475Y-92525368D01*
X127565632Y-92318525D01*
X127322411Y-92156010D01*
X127052158Y-92044068D01*
X126765260Y-91987000D01*
X126472740Y-91987000D01*
X126185842Y-92044068D01*
X125915589Y-92156010D01*
X125672368Y-92318525D01*
X125465525Y-92525368D01*
X125303010Y-92768589D01*
X125191068Y-93038842D01*
X125134000Y-93325740D01*
X124710000Y-93325740D01*
X124710000Y-88245740D01*
X125134000Y-88245740D01*
X125134000Y-88538260D01*
X125191068Y-88825158D01*
X125303010Y-89095411D01*
X125465525Y-89338632D01*
X125672368Y-89545475D01*
X125865912Y-89674797D01*
X125869998Y-89716285D01*
X125913454Y-89859546D01*
X125984026Y-89991576D01*
X126055201Y-90078302D01*
X126079000Y-90107301D01*
X126107998Y-90131099D01*
X136206400Y-100229503D01*
X136206400Y-100505523D01*
X136090040Y-100476750D01*
X135817508Y-100464188D01*
X135547762Y-100505035D01*
X135291168Y-100597723D01*
X135178137Y-100658140D01*
X135112612Y-100897007D01*
X135890000Y-101674395D01*
X135904143Y-101660253D01*
X136083748Y-101839858D01*
X136069605Y-101854000D01*
X136083748Y-101868143D01*
X135904143Y-102047748D01*
X135890000Y-102033605D01*
X135112612Y-102810993D01*
X135178137Y-103049860D01*
X135336477Y-103124164D01*
X135233957Y-103166629D01*
X135007114Y-103318201D01*
X134814201Y-103511114D01*
X134662629Y-103737957D01*
X134558225Y-103990011D01*
X134505000Y-104257589D01*
X134505000Y-104530411D01*
X134558225Y-104797989D01*
X134662629Y-105050043D01*
X134814201Y-105276886D01*
X135007114Y-105469799D01*
X135233957Y-105621371D01*
X135336873Y-105664000D01*
X135233957Y-105706629D01*
X135007114Y-105858201D01*
X134814201Y-106051114D01*
X134662629Y-106277957D01*
X134558225Y-106530011D01*
X134505000Y-106797589D01*
X134505000Y-107070411D01*
X134558225Y-107337989D01*
X134662629Y-107590043D01*
X134814201Y-107816886D01*
X135007114Y-108009799D01*
X135233957Y-108161371D01*
X135336873Y-108204000D01*
X135233957Y-108246629D01*
X135007114Y-108398201D01*
X134814201Y-108591114D01*
X134662629Y-108817957D01*
X134558225Y-109070011D01*
X134505000Y-109337589D01*
X134505000Y-109610411D01*
X134558225Y-109877989D01*
X134602136Y-109984000D01*
X130141102Y-109984000D01*
X128358104Y-108201003D01*
X128334301Y-108171999D01*
X128218576Y-108077026D01*
X128086547Y-108006454D01*
X127943286Y-107962997D01*
X127901796Y-107958911D01*
X127772475Y-107765368D01*
X127565632Y-107558525D01*
X127322411Y-107396010D01*
X127052158Y-107284068D01*
X126765260Y-107227000D01*
X126472740Y-107227000D01*
X126185842Y-107284068D01*
X125915589Y-107396010D01*
X125672368Y-107558525D01*
X125465525Y-107765368D01*
X125303010Y-108008589D01*
X125191068Y-108278842D01*
X125134000Y-108565740D01*
X125134000Y-108858260D01*
X125191068Y-109145158D01*
X125303010Y-109415411D01*
X125465525Y-109658632D01*
X125672368Y-109865475D01*
X125915589Y-110027990D01*
X126185842Y-110139932D01*
X126472740Y-110197000D01*
X126765260Y-110197000D01*
X127052158Y-110139932D01*
X127322411Y-110027990D01*
X127565632Y-109865475D01*
X127719303Y-109711804D01*
X129262501Y-111255003D01*
X129286299Y-111284001D01*
X129315297Y-111307799D01*
X129402023Y-111378974D01*
X129534053Y-111449546D01*
X129677314Y-111493003D01*
X129788967Y-111504000D01*
X129788977Y-111504000D01*
X129826300Y-111507676D01*
X129863623Y-111504000D01*
X137042913Y-111504000D01*
X137054188Y-111618482D01*
X137090498Y-111738180D01*
X137149463Y-111848494D01*
X137228815Y-111945185D01*
X137325506Y-112024537D01*
X137435820Y-112083502D01*
X137555518Y-112119812D01*
X137680000Y-112132072D01*
X139180000Y-112132072D01*
X139304482Y-112119812D01*
X139424180Y-112083502D01*
X139534494Y-112024537D01*
X139631185Y-111945185D01*
X139710537Y-111848494D01*
X139741050Y-111791409D01*
X142520000Y-111791409D01*
X142520000Y-112236591D01*
X142606851Y-112673218D01*
X142777214Y-113084511D01*
X143024544Y-113454666D01*
X143339334Y-113769456D01*
X143709489Y-114016786D01*
X144120782Y-114187149D01*
X144557409Y-114274000D01*
X145002591Y-114274000D01*
X145439218Y-114187149D01*
X145695000Y-114081201D01*
X145695000Y-114279279D01*
X145777047Y-114691756D01*
X145937988Y-115080302D01*
X146171637Y-115429983D01*
X146469017Y-115727363D01*
X146818698Y-115961012D01*
X147207244Y-116121953D01*
X147619721Y-116204000D01*
X148040279Y-116204000D01*
X148452756Y-116121953D01*
X148841302Y-115961012D01*
X149190983Y-115727363D01*
X149488363Y-115429983D01*
X149722012Y-115080302D01*
X149882953Y-114691756D01*
X149965000Y-114279279D01*
X149965000Y-113858721D01*
X149882953Y-113446244D01*
X149722012Y-113057698D01*
X149488363Y-112708017D01*
X149190983Y-112410637D01*
X148841302Y-112176988D01*
X148452756Y-112016047D01*
X148040279Y-111934000D01*
X147619721Y-111934000D01*
X147207244Y-112016047D01*
X147040000Y-112085322D01*
X147040000Y-111791409D01*
X146953149Y-111354782D01*
X146782786Y-110943489D01*
X146535456Y-110573334D01*
X146220666Y-110258544D01*
X145850511Y-110011214D01*
X145439218Y-109840851D01*
X145002591Y-109754000D01*
X144557409Y-109754000D01*
X144120782Y-109840851D01*
X143709489Y-110011214D01*
X143339334Y-110258544D01*
X143024544Y-110573334D01*
X142777214Y-110943489D01*
X142606851Y-111354782D01*
X142520000Y-111791409D01*
X139741050Y-111791409D01*
X139769502Y-111738180D01*
X139805812Y-111618482D01*
X139818072Y-111494000D01*
X139818072Y-109994000D01*
X139805812Y-109869518D01*
X139769502Y-109749820D01*
X139710537Y-109639506D01*
X139631185Y-109542815D01*
X139534494Y-109463463D01*
X139424180Y-109404498D01*
X139304482Y-109368188D01*
X139196517Y-109357555D01*
X139312886Y-109279799D01*
X139505799Y-109086886D01*
X139657371Y-108860043D01*
X139761775Y-108607989D01*
X139815000Y-108340411D01*
X139815000Y-108067589D01*
X139761775Y-107800011D01*
X139657371Y-107547957D01*
X139505799Y-107321114D01*
X139312886Y-107128201D01*
X139086043Y-106976629D01*
X138983127Y-106934000D01*
X139086043Y-106891371D01*
X139312886Y-106739799D01*
X139505799Y-106546886D01*
X139657371Y-106320043D01*
X139761775Y-106067989D01*
X139815000Y-105800411D01*
X139815000Y-105527589D01*
X139761775Y-105260011D01*
X139657371Y-105007957D01*
X139505799Y-104781114D01*
X139312886Y-104588201D01*
X139086043Y-104436629D01*
X138983127Y-104394000D01*
X139086043Y-104351371D01*
X139312886Y-104199799D01*
X139505799Y-104006886D01*
X139657371Y-103780043D01*
X139761775Y-103527989D01*
X139815000Y-103260411D01*
X139815000Y-102987589D01*
X139761775Y-102720011D01*
X139657371Y-102467957D01*
X139505799Y-102241114D01*
X139312886Y-102048201D01*
X139086043Y-101896629D01*
X138833989Y-101792225D01*
X138566411Y-101739000D01*
X138293589Y-101739000D01*
X138026011Y-101792225D01*
X137773957Y-101896629D01*
X137726400Y-101928406D01*
X137726400Y-99952022D01*
X137730076Y-99914699D01*
X137726400Y-99877376D01*
X137726400Y-99877367D01*
X137715403Y-99765714D01*
X137671946Y-99622453D01*
X137601374Y-99490424D01*
X137588211Y-99474385D01*
X137530199Y-99403696D01*
X137530195Y-99403692D01*
X137506401Y-99374699D01*
X137477409Y-99350907D01*
X131701393Y-93574891D01*
X140290519Y-93574891D01*
X140387843Y-93849252D01*
X140536822Y-94099355D01*
X140731731Y-94315588D01*
X140965080Y-94489641D01*
X141227901Y-94614825D01*
X141375110Y-94659476D01*
X141605000Y-94538155D01*
X141605000Y-93345000D01*
X140411186Y-93345000D01*
X140290519Y-93574891D01*
X131701393Y-93574891D01*
X130987611Y-92861109D01*
X140290519Y-92861109D01*
X140411186Y-93091000D01*
X141605000Y-93091000D01*
X141605000Y-91897845D01*
X141859000Y-91897845D01*
X141859000Y-93091000D01*
X141879000Y-93091000D01*
X141879000Y-93345000D01*
X141859000Y-93345000D01*
X141859000Y-94538155D01*
X142088890Y-94659476D01*
X142236099Y-94614825D01*
X142498920Y-94489641D01*
X142732269Y-94315588D01*
X142808034Y-94231534D01*
X142832498Y-94312180D01*
X142891463Y-94422494D01*
X142970815Y-94519185D01*
X143067506Y-94598537D01*
X143177820Y-94657502D01*
X143297518Y-94693812D01*
X143422000Y-94706072D01*
X143577425Y-94706072D01*
X143637026Y-94817576D01*
X143704615Y-94899932D01*
X143732000Y-94933301D01*
X143760998Y-94957099D01*
X146091640Y-97287741D01*
X145937988Y-97517698D01*
X145777047Y-97906244D01*
X145695000Y-98318721D01*
X145695000Y-98516799D01*
X145439218Y-98410851D01*
X145002591Y-98324000D01*
X144557409Y-98324000D01*
X144120782Y-98410851D01*
X143709489Y-98581214D01*
X143339334Y-98828544D01*
X143024544Y-99143334D01*
X142777214Y-99513489D01*
X142606851Y-99924782D01*
X142520000Y-100361409D01*
X142520000Y-100806591D01*
X142606851Y-101243218D01*
X142777214Y-101654511D01*
X143024544Y-102024666D01*
X143339334Y-102339456D01*
X143709489Y-102586786D01*
X144120782Y-102757149D01*
X144557409Y-102844000D01*
X145002591Y-102844000D01*
X145439218Y-102757149D01*
X145850511Y-102586786D01*
X146220666Y-102339456D01*
X146535456Y-102024666D01*
X146782786Y-101654511D01*
X146953149Y-101243218D01*
X147040000Y-100806591D01*
X147040000Y-100512678D01*
X147207244Y-100581953D01*
X147619721Y-100664000D01*
X148040279Y-100664000D01*
X148452756Y-100581953D01*
X148841302Y-100421012D01*
X149190983Y-100187363D01*
X149488363Y-99889983D01*
X149722012Y-99540302D01*
X149882953Y-99151756D01*
X149965000Y-98739279D01*
X149965000Y-98318721D01*
X149882953Y-97906244D01*
X149722012Y-97517698D01*
X149488363Y-97168017D01*
X149190983Y-96870637D01*
X148841302Y-96636988D01*
X148452756Y-96476047D01*
X148040279Y-96394000D01*
X147619721Y-96394000D01*
X147392666Y-96439164D01*
X145517986Y-94564485D01*
X145573185Y-94519185D01*
X145652537Y-94422494D01*
X145711502Y-94312180D01*
X145747812Y-94192482D01*
X145760072Y-94068000D01*
X145760072Y-92368000D01*
X145747812Y-92243518D01*
X145711502Y-92123820D01*
X145652537Y-92013506D01*
X145573185Y-91916815D01*
X145476494Y-91837463D01*
X145366180Y-91778498D01*
X145246482Y-91742188D01*
X145122000Y-91729928D01*
X143422000Y-91729928D01*
X143297518Y-91742188D01*
X143177820Y-91778498D01*
X143067506Y-91837463D01*
X142970815Y-91916815D01*
X142891463Y-92013506D01*
X142832498Y-92123820D01*
X142808034Y-92204466D01*
X142732269Y-92120412D01*
X142498920Y-91946359D01*
X142236099Y-91821175D01*
X142088890Y-91776524D01*
X141859000Y-91897845D01*
X141605000Y-91897845D01*
X141375110Y-91776524D01*
X141227901Y-91821175D01*
X140965080Y-91946359D01*
X140731731Y-92120412D01*
X140536822Y-92336645D01*
X140387843Y-92586748D01*
X140290519Y-92861109D01*
X130987611Y-92861109D01*
X127618804Y-89492303D01*
X127772475Y-89338632D01*
X127934990Y-89095411D01*
X128046932Y-88825158D01*
X128104000Y-88538260D01*
X128104000Y-88245740D01*
X128046932Y-87958842D01*
X127934990Y-87688589D01*
X127772475Y-87445368D01*
X127565632Y-87238525D01*
X127322411Y-87076010D01*
X127052158Y-86964068D01*
X126765260Y-86907000D01*
X126472740Y-86907000D01*
X126185842Y-86964068D01*
X125915589Y-87076010D01*
X125672368Y-87238525D01*
X125465525Y-87445368D01*
X125303010Y-87688589D01*
X125191068Y-87958842D01*
X125134000Y-88245740D01*
X124710000Y-88245740D01*
X124710000Y-82462000D01*
X125130928Y-82462000D01*
X125130928Y-84162000D01*
X125143188Y-84286482D01*
X125179498Y-84406180D01*
X125238463Y-84516494D01*
X125317815Y-84613185D01*
X125414506Y-84692537D01*
X125524820Y-84751502D01*
X125644518Y-84787812D01*
X125769000Y-84800072D01*
X127469000Y-84800072D01*
X127593482Y-84787812D01*
X127713180Y-84751502D01*
X127823494Y-84692537D01*
X127920185Y-84613185D01*
X127999537Y-84516494D01*
X128058502Y-84406180D01*
X128094812Y-84286482D01*
X128107072Y-84162000D01*
X128107072Y-82462000D01*
X128094812Y-82337518D01*
X128058502Y-82217820D01*
X127999537Y-82107506D01*
X127920185Y-82010815D01*
X127823494Y-81931463D01*
X127713180Y-81872498D01*
X127593482Y-81836188D01*
X127469000Y-81823928D01*
X125769000Y-81823928D01*
X125644518Y-81836188D01*
X125524820Y-81872498D01*
X125414506Y-81931463D01*
X125317815Y-82010815D01*
X125238463Y-82107506D01*
X125179498Y-82217820D01*
X125143188Y-82337518D01*
X125130928Y-82462000D01*
X124710000Y-82462000D01*
X124710000Y-81710000D01*
X153290000Y-81710000D01*
X153290001Y-131290000D01*
G37*
X153290001Y-131290000D02*
X124710000Y-131290000D01*
X124710000Y-129388890D01*
X125177524Y-129388890D01*
X125222175Y-129536099D01*
X125347359Y-129798920D01*
X125521412Y-130032269D01*
X125737645Y-130227178D01*
X125987748Y-130376157D01*
X126262109Y-130473481D01*
X126492000Y-130352814D01*
X126492000Y-129159000D01*
X126746000Y-129159000D01*
X126746000Y-130352814D01*
X126975891Y-130473481D01*
X127250252Y-130376157D01*
X127500355Y-130227178D01*
X127716588Y-130032269D01*
X127890641Y-129798920D01*
X128015825Y-129536099D01*
X128060476Y-129388890D01*
X127939155Y-129159000D01*
X126746000Y-129159000D01*
X126492000Y-129159000D01*
X125298845Y-129159000D01*
X125177524Y-129388890D01*
X124710000Y-129388890D01*
X124710000Y-128675110D01*
X125177524Y-128675110D01*
X125298845Y-128905000D01*
X126492000Y-128905000D01*
X126492000Y-127711186D01*
X126746000Y-127711186D01*
X126746000Y-128905000D01*
X127939155Y-128905000D01*
X128060476Y-128675110D01*
X128015825Y-128527901D01*
X127890641Y-128265080D01*
X127716588Y-128031731D01*
X127500355Y-127836822D01*
X127250252Y-127687843D01*
X126975891Y-127590519D01*
X126746000Y-127711186D01*
X126492000Y-127711186D01*
X126262109Y-127590519D01*
X125987748Y-127687843D01*
X125737645Y-127836822D01*
X125521412Y-128031731D01*
X125347359Y-128265080D01*
X125222175Y-128527901D01*
X125177524Y-128675110D01*
X124710000Y-128675110D01*
X124710000Y-123805740D01*
X125134000Y-123805740D01*
X125134000Y-124098260D01*
X125191068Y-124385158D01*
X125303010Y-124655411D01*
X125465525Y-124898632D01*
X125672368Y-125105475D01*
X125915589Y-125267990D01*
X126185842Y-125379932D01*
X126472740Y-125437000D01*
X126765260Y-125437000D01*
X127052158Y-125379932D01*
X127322411Y-125267990D01*
X127565632Y-125105475D01*
X127772475Y-124898632D01*
X127934990Y-124655411D01*
X128046932Y-124385158D01*
X128104000Y-124098260D01*
X128104000Y-123805740D01*
X128046932Y-123518842D01*
X127934990Y-123248589D01*
X127772475Y-123005368D01*
X127565632Y-122798525D01*
X127322411Y-122636010D01*
X127052158Y-122524068D01*
X126765260Y-122467000D01*
X126472740Y-122467000D01*
X126185842Y-122524068D01*
X125915589Y-122636010D01*
X125672368Y-122798525D01*
X125465525Y-123005368D01*
X125303010Y-123248589D01*
X125191068Y-123518842D01*
X125134000Y-123805740D01*
X124710000Y-123805740D01*
X124710000Y-119228890D01*
X125177524Y-119228890D01*
X125222175Y-119376099D01*
X125347359Y-119638920D01*
X125521412Y-119872269D01*
X125737645Y-120067178D01*
X125987748Y-120216157D01*
X126262109Y-120313481D01*
X126492000Y-120192814D01*
X126492000Y-118999000D01*
X126746000Y-118999000D01*
X126746000Y-120192814D01*
X126975891Y-120313481D01*
X127250252Y-120216157D01*
X127500355Y-120067178D01*
X127716588Y-119872269D01*
X127890641Y-119638920D01*
X128015825Y-119376099D01*
X128060476Y-119228890D01*
X127939155Y-118999000D01*
X126746000Y-118999000D01*
X126492000Y-118999000D01*
X125298845Y-118999000D01*
X125177524Y-119228890D01*
X124710000Y-119228890D01*
X124710000Y-118515110D01*
X125177524Y-118515110D01*
X125298845Y-118745000D01*
X126492000Y-118745000D01*
X126492000Y-117551186D01*
X126746000Y-117551186D01*
X126746000Y-118745000D01*
X127939155Y-118745000D01*
X128060476Y-118515110D01*
X128015825Y-118367901D01*
X127890641Y-118105080D01*
X127716588Y-117871731D01*
X127500355Y-117676822D01*
X127250252Y-117527843D01*
X126975891Y-117430519D01*
X126746000Y-117551186D01*
X126492000Y-117551186D01*
X126262109Y-117430519D01*
X125987748Y-117527843D01*
X125737645Y-117676822D01*
X125521412Y-117871731D01*
X125347359Y-118105080D01*
X125222175Y-118367901D01*
X125177524Y-118515110D01*
X124710000Y-118515110D01*
X124710000Y-113645740D01*
X125134000Y-113645740D01*
X125134000Y-113938260D01*
X125191068Y-114225158D01*
X125303010Y-114495411D01*
X125465525Y-114738632D01*
X125672368Y-114945475D01*
X125915589Y-115107990D01*
X126185842Y-115219932D01*
X126472740Y-115277000D01*
X126765260Y-115277000D01*
X127052158Y-115219932D01*
X127322411Y-115107990D01*
X127565632Y-114945475D01*
X127772475Y-114738632D01*
X127934990Y-114495411D01*
X128046932Y-114225158D01*
X128104000Y-113938260D01*
X128104000Y-113645740D01*
X128046932Y-113358842D01*
X127934990Y-113088589D01*
X127772475Y-112845368D01*
X127565632Y-112638525D01*
X127322411Y-112476010D01*
X127052158Y-112364068D01*
X126765260Y-112307000D01*
X126472740Y-112307000D01*
X126185842Y-112364068D01*
X125915589Y-112476010D01*
X125672368Y-112638525D01*
X125465525Y-112845368D01*
X125303010Y-113088589D01*
X125191068Y-113358842D01*
X125134000Y-113645740D01*
X124710000Y-113645740D01*
X124710000Y-103485740D01*
X125134000Y-103485740D01*
X125134000Y-103778260D01*
X125191068Y-104065158D01*
X125303010Y-104335411D01*
X125465525Y-104578632D01*
X125672368Y-104785475D01*
X125915589Y-104947990D01*
X126185842Y-105059932D01*
X126472740Y-105117000D01*
X126765260Y-105117000D01*
X127052158Y-105059932D01*
X127322411Y-104947990D01*
X127565632Y-104785475D01*
X127772475Y-104578632D01*
X127934990Y-104335411D01*
X128046932Y-104065158D01*
X128104000Y-103778260D01*
X128104000Y-103485740D01*
X128046932Y-103198842D01*
X127934990Y-102928589D01*
X127772475Y-102685368D01*
X127565632Y-102478525D01*
X127322411Y-102316010D01*
X127052158Y-102204068D01*
X126765260Y-102147000D01*
X126472740Y-102147000D01*
X126185842Y-102204068D01*
X125915589Y-102316010D01*
X125672368Y-102478525D01*
X125465525Y-102685368D01*
X125303010Y-102928589D01*
X125191068Y-103198842D01*
X125134000Y-103485740D01*
X124710000Y-103485740D01*
X124710000Y-101926492D01*
X134500188Y-101926492D01*
X134541035Y-102196238D01*
X134633723Y-102452832D01*
X134694140Y-102565863D01*
X134933007Y-102631388D01*
X135710395Y-101854000D01*
X134933007Y-101076612D01*
X134694140Y-101142137D01*
X134578240Y-101389116D01*
X134512750Y-101653960D01*
X134500188Y-101926492D01*
X124710000Y-101926492D01*
X124710000Y-98405740D01*
X125134000Y-98405740D01*
X125134000Y-98698260D01*
X125191068Y-98985158D01*
X125303010Y-99255411D01*
X125465525Y-99498632D01*
X125672368Y-99705475D01*
X125915589Y-99867990D01*
X126185842Y-99979932D01*
X126472740Y-100037000D01*
X126765260Y-100037000D01*
X127052158Y-99979932D01*
X127322411Y-99867990D01*
X127565632Y-99705475D01*
X127772475Y-99498632D01*
X127934990Y-99255411D01*
X128046932Y-98985158D01*
X128104000Y-98698260D01*
X128104000Y-98405740D01*
X128046932Y-98118842D01*
X127934990Y-97848589D01*
X127772475Y-97605368D01*
X127565632Y-97398525D01*
X127322411Y-97236010D01*
X127052158Y-97124068D01*
X126765260Y-97067000D01*
X126472740Y-97067000D01*
X126185842Y-97124068D01*
X125915589Y-97236010D01*
X125672368Y-97398525D01*
X125465525Y-97605368D01*
X125303010Y-97848589D01*
X125191068Y-98118842D01*
X125134000Y-98405740D01*
X124710000Y-98405740D01*
X124710000Y-93325740D01*
X125134000Y-93325740D01*
X125134000Y-93618260D01*
X125191068Y-93905158D01*
X125303010Y-94175411D01*
X125465525Y-94418632D01*
X125672368Y-94625475D01*
X125915589Y-94787990D01*
X126185842Y-94899932D01*
X126472740Y-94957000D01*
X126765260Y-94957000D01*
X127052158Y-94899932D01*
X127322411Y-94787990D01*
X127565632Y-94625475D01*
X127772475Y-94418632D01*
X127934990Y-94175411D01*
X128046932Y-93905158D01*
X128104000Y-93618260D01*
X128104000Y-93325740D01*
X128046932Y-93038842D01*
X127934990Y-92768589D01*
X127772475Y-92525368D01*
X127565632Y-92318525D01*
X127322411Y-92156010D01*
X127052158Y-92044068D01*
X126765260Y-91987000D01*
X126472740Y-91987000D01*
X126185842Y-92044068D01*
X125915589Y-92156010D01*
X125672368Y-92318525D01*
X125465525Y-92525368D01*
X125303010Y-92768589D01*
X125191068Y-93038842D01*
X125134000Y-93325740D01*
X124710000Y-93325740D01*
X124710000Y-88245740D01*
X125134000Y-88245740D01*
X125134000Y-88538260D01*
X125191068Y-88825158D01*
X125303010Y-89095411D01*
X125465525Y-89338632D01*
X125672368Y-89545475D01*
X125865912Y-89674797D01*
X125869998Y-89716285D01*
X125913454Y-89859546D01*
X125984026Y-89991576D01*
X126055201Y-90078302D01*
X126079000Y-90107301D01*
X126107998Y-90131099D01*
X136206400Y-100229503D01*
X136206400Y-100505523D01*
X136090040Y-100476750D01*
X135817508Y-100464188D01*
X135547762Y-100505035D01*
X135291168Y-100597723D01*
X135178137Y-100658140D01*
X135112612Y-100897007D01*
X135890000Y-101674395D01*
X135904143Y-101660253D01*
X136083748Y-101839858D01*
X136069605Y-101854000D01*
X136083748Y-101868143D01*
X135904143Y-102047748D01*
X135890000Y-102033605D01*
X135112612Y-102810993D01*
X135178137Y-103049860D01*
X135336477Y-103124164D01*
X135233957Y-103166629D01*
X135007114Y-103318201D01*
X134814201Y-103511114D01*
X134662629Y-103737957D01*
X134558225Y-103990011D01*
X134505000Y-104257589D01*
X134505000Y-104530411D01*
X134558225Y-104797989D01*
X134662629Y-105050043D01*
X134814201Y-105276886D01*
X135007114Y-105469799D01*
X135233957Y-105621371D01*
X135336873Y-105664000D01*
X135233957Y-105706629D01*
X135007114Y-105858201D01*
X134814201Y-106051114D01*
X134662629Y-106277957D01*
X134558225Y-106530011D01*
X134505000Y-106797589D01*
X134505000Y-107070411D01*
X134558225Y-107337989D01*
X134662629Y-107590043D01*
X134814201Y-107816886D01*
X135007114Y-108009799D01*
X135233957Y-108161371D01*
X135336873Y-108204000D01*
X135233957Y-108246629D01*
X135007114Y-108398201D01*
X134814201Y-108591114D01*
X134662629Y-108817957D01*
X134558225Y-109070011D01*
X134505000Y-109337589D01*
X134505000Y-109610411D01*
X134558225Y-109877989D01*
X134602136Y-109984000D01*
X130141102Y-109984000D01*
X128358104Y-108201003D01*
X128334301Y-108171999D01*
X128218576Y-108077026D01*
X128086547Y-108006454D01*
X127943286Y-107962997D01*
X127901796Y-107958911D01*
X127772475Y-107765368D01*
X127565632Y-107558525D01*
X127322411Y-107396010D01*
X127052158Y-107284068D01*
X126765260Y-107227000D01*
X126472740Y-107227000D01*
X126185842Y-107284068D01*
X125915589Y-107396010D01*
X125672368Y-107558525D01*
X125465525Y-107765368D01*
X125303010Y-108008589D01*
X125191068Y-108278842D01*
X125134000Y-108565740D01*
X125134000Y-108858260D01*
X125191068Y-109145158D01*
X125303010Y-109415411D01*
X125465525Y-109658632D01*
X125672368Y-109865475D01*
X125915589Y-110027990D01*
X126185842Y-110139932D01*
X126472740Y-110197000D01*
X126765260Y-110197000D01*
X127052158Y-110139932D01*
X127322411Y-110027990D01*
X127565632Y-109865475D01*
X127719303Y-109711804D01*
X129262501Y-111255003D01*
X129286299Y-111284001D01*
X129315297Y-111307799D01*
X129402023Y-111378974D01*
X129534053Y-111449546D01*
X129677314Y-111493003D01*
X129788967Y-111504000D01*
X129788977Y-111504000D01*
X129826300Y-111507676D01*
X129863623Y-111504000D01*
X137042913Y-111504000D01*
X137054188Y-111618482D01*
X137090498Y-111738180D01*
X137149463Y-111848494D01*
X137228815Y-111945185D01*
X137325506Y-112024537D01*
X137435820Y-112083502D01*
X137555518Y-112119812D01*
X137680000Y-112132072D01*
X139180000Y-112132072D01*
X139304482Y-112119812D01*
X139424180Y-112083502D01*
X139534494Y-112024537D01*
X139631185Y-111945185D01*
X139710537Y-111848494D01*
X139741050Y-111791409D01*
X142520000Y-111791409D01*
X142520000Y-112236591D01*
X142606851Y-112673218D01*
X142777214Y-113084511D01*
X143024544Y-113454666D01*
X143339334Y-113769456D01*
X143709489Y-114016786D01*
X144120782Y-114187149D01*
X144557409Y-114274000D01*
X145002591Y-114274000D01*
X145439218Y-114187149D01*
X145695000Y-114081201D01*
X145695000Y-114279279D01*
X145777047Y-114691756D01*
X145937988Y-115080302D01*
X146171637Y-115429983D01*
X146469017Y-115727363D01*
X146818698Y-115961012D01*
X147207244Y-116121953D01*
X147619721Y-116204000D01*
X148040279Y-116204000D01*
X148452756Y-116121953D01*
X148841302Y-115961012D01*
X149190983Y-115727363D01*
X149488363Y-115429983D01*
X149722012Y-115080302D01*
X149882953Y-114691756D01*
X149965000Y-114279279D01*
X149965000Y-113858721D01*
X149882953Y-113446244D01*
X149722012Y-113057698D01*
X149488363Y-112708017D01*
X149190983Y-112410637D01*
X148841302Y-112176988D01*
X148452756Y-112016047D01*
X148040279Y-111934000D01*
X147619721Y-111934000D01*
X147207244Y-112016047D01*
X147040000Y-112085322D01*
X147040000Y-111791409D01*
X146953149Y-111354782D01*
X146782786Y-110943489D01*
X146535456Y-110573334D01*
X146220666Y-110258544D01*
X145850511Y-110011214D01*
X145439218Y-109840851D01*
X145002591Y-109754000D01*
X144557409Y-109754000D01*
X144120782Y-109840851D01*
X143709489Y-110011214D01*
X143339334Y-110258544D01*
X143024544Y-110573334D01*
X142777214Y-110943489D01*
X142606851Y-111354782D01*
X142520000Y-111791409D01*
X139741050Y-111791409D01*
X139769502Y-111738180D01*
X139805812Y-111618482D01*
X139818072Y-111494000D01*
X139818072Y-109994000D01*
X139805812Y-109869518D01*
X139769502Y-109749820D01*
X139710537Y-109639506D01*
X139631185Y-109542815D01*
X139534494Y-109463463D01*
X139424180Y-109404498D01*
X139304482Y-109368188D01*
X139196517Y-109357555D01*
X139312886Y-109279799D01*
X139505799Y-109086886D01*
X139657371Y-108860043D01*
X139761775Y-108607989D01*
X139815000Y-108340411D01*
X139815000Y-108067589D01*
X139761775Y-107800011D01*
X139657371Y-107547957D01*
X139505799Y-107321114D01*
X139312886Y-107128201D01*
X139086043Y-106976629D01*
X138983127Y-106934000D01*
X139086043Y-106891371D01*
X139312886Y-106739799D01*
X139505799Y-106546886D01*
X139657371Y-106320043D01*
X139761775Y-106067989D01*
X139815000Y-105800411D01*
X139815000Y-105527589D01*
X139761775Y-105260011D01*
X139657371Y-105007957D01*
X139505799Y-104781114D01*
X139312886Y-104588201D01*
X139086043Y-104436629D01*
X138983127Y-104394000D01*
X139086043Y-104351371D01*
X139312886Y-104199799D01*
X139505799Y-104006886D01*
X139657371Y-103780043D01*
X139761775Y-103527989D01*
X139815000Y-103260411D01*
X139815000Y-102987589D01*
X139761775Y-102720011D01*
X139657371Y-102467957D01*
X139505799Y-102241114D01*
X139312886Y-102048201D01*
X139086043Y-101896629D01*
X138833989Y-101792225D01*
X138566411Y-101739000D01*
X138293589Y-101739000D01*
X138026011Y-101792225D01*
X137773957Y-101896629D01*
X137726400Y-101928406D01*
X137726400Y-99952022D01*
X137730076Y-99914699D01*
X137726400Y-99877376D01*
X137726400Y-99877367D01*
X137715403Y-99765714D01*
X137671946Y-99622453D01*
X137601374Y-99490424D01*
X137588211Y-99474385D01*
X137530199Y-99403696D01*
X137530195Y-99403692D01*
X137506401Y-99374699D01*
X137477409Y-99350907D01*
X131701393Y-93574891D01*
X140290519Y-93574891D01*
X140387843Y-93849252D01*
X140536822Y-94099355D01*
X140731731Y-94315588D01*
X140965080Y-94489641D01*
X141227901Y-94614825D01*
X141375110Y-94659476D01*
X141605000Y-94538155D01*
X141605000Y-93345000D01*
X140411186Y-93345000D01*
X140290519Y-93574891D01*
X131701393Y-93574891D01*
X130987611Y-92861109D01*
X140290519Y-92861109D01*
X140411186Y-93091000D01*
X141605000Y-93091000D01*
X141605000Y-91897845D01*
X141859000Y-91897845D01*
X141859000Y-93091000D01*
X141879000Y-93091000D01*
X141879000Y-93345000D01*
X141859000Y-93345000D01*
X141859000Y-94538155D01*
X142088890Y-94659476D01*
X142236099Y-94614825D01*
X142498920Y-94489641D01*
X142732269Y-94315588D01*
X142808034Y-94231534D01*
X142832498Y-94312180D01*
X142891463Y-94422494D01*
X142970815Y-94519185D01*
X143067506Y-94598537D01*
X143177820Y-94657502D01*
X143297518Y-94693812D01*
X143422000Y-94706072D01*
X143577425Y-94706072D01*
X143637026Y-94817576D01*
X143704615Y-94899932D01*
X143732000Y-94933301D01*
X143760998Y-94957099D01*
X146091640Y-97287741D01*
X145937988Y-97517698D01*
X145777047Y-97906244D01*
X145695000Y-98318721D01*
X145695000Y-98516799D01*
X145439218Y-98410851D01*
X145002591Y-98324000D01*
X144557409Y-98324000D01*
X144120782Y-98410851D01*
X143709489Y-98581214D01*
X143339334Y-98828544D01*
X143024544Y-99143334D01*
X142777214Y-99513489D01*
X142606851Y-99924782D01*
X142520000Y-100361409D01*
X142520000Y-100806591D01*
X142606851Y-101243218D01*
X142777214Y-101654511D01*
X143024544Y-102024666D01*
X143339334Y-102339456D01*
X143709489Y-102586786D01*
X144120782Y-102757149D01*
X144557409Y-102844000D01*
X145002591Y-102844000D01*
X145439218Y-102757149D01*
X145850511Y-102586786D01*
X146220666Y-102339456D01*
X146535456Y-102024666D01*
X146782786Y-101654511D01*
X146953149Y-101243218D01*
X147040000Y-100806591D01*
X147040000Y-100512678D01*
X147207244Y-100581953D01*
X147619721Y-100664000D01*
X148040279Y-100664000D01*
X148452756Y-100581953D01*
X148841302Y-100421012D01*
X149190983Y-100187363D01*
X149488363Y-99889983D01*
X149722012Y-99540302D01*
X149882953Y-99151756D01*
X149965000Y-98739279D01*
X149965000Y-98318721D01*
X149882953Y-97906244D01*
X149722012Y-97517698D01*
X149488363Y-97168017D01*
X149190983Y-96870637D01*
X148841302Y-96636988D01*
X148452756Y-96476047D01*
X148040279Y-96394000D01*
X147619721Y-96394000D01*
X147392666Y-96439164D01*
X145517986Y-94564485D01*
X145573185Y-94519185D01*
X145652537Y-94422494D01*
X145711502Y-94312180D01*
X145747812Y-94192482D01*
X145760072Y-94068000D01*
X145760072Y-92368000D01*
X145747812Y-92243518D01*
X145711502Y-92123820D01*
X145652537Y-92013506D01*
X145573185Y-91916815D01*
X145476494Y-91837463D01*
X145366180Y-91778498D01*
X145246482Y-91742188D01*
X145122000Y-91729928D01*
X143422000Y-91729928D01*
X143297518Y-91742188D01*
X143177820Y-91778498D01*
X143067506Y-91837463D01*
X142970815Y-91916815D01*
X142891463Y-92013506D01*
X142832498Y-92123820D01*
X142808034Y-92204466D01*
X142732269Y-92120412D01*
X142498920Y-91946359D01*
X142236099Y-91821175D01*
X142088890Y-91776524D01*
X141859000Y-91897845D01*
X141605000Y-91897845D01*
X141375110Y-91776524D01*
X141227901Y-91821175D01*
X140965080Y-91946359D01*
X140731731Y-92120412D01*
X140536822Y-92336645D01*
X140387843Y-92586748D01*
X140290519Y-92861109D01*
X130987611Y-92861109D01*
X127618804Y-89492303D01*
X127772475Y-89338632D01*
X127934990Y-89095411D01*
X128046932Y-88825158D01*
X128104000Y-88538260D01*
X128104000Y-88245740D01*
X128046932Y-87958842D01*
X127934990Y-87688589D01*
X127772475Y-87445368D01*
X127565632Y-87238525D01*
X127322411Y-87076010D01*
X127052158Y-86964068D01*
X126765260Y-86907000D01*
X126472740Y-86907000D01*
X126185842Y-86964068D01*
X125915589Y-87076010D01*
X125672368Y-87238525D01*
X125465525Y-87445368D01*
X125303010Y-87688589D01*
X125191068Y-87958842D01*
X125134000Y-88245740D01*
X124710000Y-88245740D01*
X124710000Y-82462000D01*
X125130928Y-82462000D01*
X125130928Y-84162000D01*
X125143188Y-84286482D01*
X125179498Y-84406180D01*
X125238463Y-84516494D01*
X125317815Y-84613185D01*
X125414506Y-84692537D01*
X125524820Y-84751502D01*
X125644518Y-84787812D01*
X125769000Y-84800072D01*
X127469000Y-84800072D01*
X127593482Y-84787812D01*
X127713180Y-84751502D01*
X127823494Y-84692537D01*
X127920185Y-84613185D01*
X127999537Y-84516494D01*
X128058502Y-84406180D01*
X128094812Y-84286482D01*
X128107072Y-84162000D01*
X128107072Y-82462000D01*
X128094812Y-82337518D01*
X128058502Y-82217820D01*
X127999537Y-82107506D01*
X127920185Y-82010815D01*
X127823494Y-81931463D01*
X127713180Y-81872498D01*
X127593482Y-81836188D01*
X127469000Y-81823928D01*
X125769000Y-81823928D01*
X125644518Y-81836188D01*
X125524820Y-81872498D01*
X125414506Y-81931463D01*
X125317815Y-82010815D01*
X125238463Y-82107506D01*
X125179498Y-82217820D01*
X125143188Y-82337518D01*
X125130928Y-82462000D01*
X124710000Y-82462000D01*
X124710000Y-81710000D01*
X153290000Y-81710000D01*
X153290001Y-131290000D01*
%TD*%
M02*
