%TF.GenerationSoftware,KiCad,Pcbnew,(5.1.6)-1*%
%TF.CreationDate,2020-07-09T15:12:23-03:00*%
%TF.ProjectId,driver-breakout-module,64726976-6572-42d6-9272-65616b6f7574,rev?*%
%TF.SameCoordinates,Original*%
%TF.FileFunction,Legend,Top*%
%TF.FilePolarity,Positive*%
%FSLAX46Y46*%
G04 Gerber Fmt 4.6, Leading zero omitted, Abs format (unit mm)*
G04 Created by KiCad (PCBNEW (5.1.6)-1) date 2020-07-09 15:12:23*
%MOMM*%
%LPD*%
G01*
G04 APERTURE LIST*
%ADD10C,0.150000*%
%ADD11C,0.120000*%
%ADD12C,0.010000*%
G04 APERTURE END LIST*
D10*
X128722666Y-129325666D02*
X129198857Y-129325666D01*
X128627428Y-129611380D02*
X128960761Y-128611380D01*
X129294095Y-129611380D01*
X130103619Y-129611380D02*
X129627428Y-129611380D01*
X129627428Y-128611380D01*
X130436952Y-129611380D02*
X130436952Y-128611380D01*
X130770285Y-129325666D01*
X131103619Y-128611380D01*
X131103619Y-129611380D01*
X131579809Y-129230428D02*
X132341714Y-129230428D01*
X128722666Y-124118666D02*
X129198857Y-124118666D01*
X128627428Y-124404380D02*
X128960761Y-123404380D01*
X129294095Y-124404380D01*
X130103619Y-124404380D02*
X129627428Y-124404380D01*
X129627428Y-123404380D01*
X130436952Y-124404380D02*
X130436952Y-123404380D01*
X130770285Y-124118666D01*
X131103619Y-123404380D01*
X131103619Y-124404380D01*
X131579809Y-124023428D02*
X132341714Y-124023428D01*
X131960761Y-124404380D02*
X131960761Y-123642476D01*
X128706857Y-119324380D02*
X128706857Y-118324380D01*
X129087809Y-118324380D01*
X129183047Y-118372000D01*
X129230666Y-118419619D01*
X129278285Y-118514857D01*
X129278285Y-118657714D01*
X129230666Y-118752952D01*
X129183047Y-118800571D01*
X129087809Y-118848190D01*
X128706857Y-118848190D01*
X129706857Y-118800571D02*
X130040190Y-118800571D01*
X130183047Y-119324380D02*
X129706857Y-119324380D01*
X129706857Y-118324380D01*
X130183047Y-118324380D01*
X130611619Y-119324380D02*
X130611619Y-118324380D01*
X131183047Y-119324380D01*
X131183047Y-118324380D01*
X131659238Y-119324380D02*
X131659238Y-118324380D01*
X131897333Y-118324380D01*
X132040190Y-118372000D01*
X132135428Y-118467238D01*
X132183047Y-118562476D01*
X132230666Y-118752952D01*
X132230666Y-118895809D01*
X132183047Y-119086285D01*
X132135428Y-119181523D01*
X132040190Y-119276761D01*
X131897333Y-119324380D01*
X131659238Y-119324380D01*
X132659238Y-118943428D02*
X133421142Y-118943428D01*
X128706857Y-114244380D02*
X128706857Y-113244380D01*
X129087809Y-113244380D01*
X129183047Y-113292000D01*
X129230666Y-113339619D01*
X129278285Y-113434857D01*
X129278285Y-113577714D01*
X129230666Y-113672952D01*
X129183047Y-113720571D01*
X129087809Y-113768190D01*
X128706857Y-113768190D01*
X129706857Y-113720571D02*
X130040190Y-113720571D01*
X130183047Y-114244380D02*
X129706857Y-114244380D01*
X129706857Y-113244380D01*
X130183047Y-113244380D01*
X130611619Y-114244380D02*
X130611619Y-113244380D01*
X131183047Y-114244380D01*
X131183047Y-113244380D01*
X131659238Y-114244380D02*
X131659238Y-113244380D01*
X131897333Y-113244380D01*
X132040190Y-113292000D01*
X132135428Y-113387238D01*
X132183047Y-113482476D01*
X132230666Y-113672952D01*
X132230666Y-113815809D01*
X132183047Y-114006285D01*
X132135428Y-114101523D01*
X132040190Y-114196761D01*
X131897333Y-114244380D01*
X131659238Y-114244380D01*
X132659238Y-113863428D02*
X133421142Y-113863428D01*
X133040190Y-114244380D02*
X133040190Y-113482476D01*
X151201380Y-120078333D02*
X150201380Y-120078333D01*
X150201380Y-119697380D01*
X150249000Y-119602142D01*
X150296619Y-119554523D01*
X150391857Y-119506904D01*
X150534714Y-119506904D01*
X150629952Y-119554523D01*
X150677571Y-119602142D01*
X150725190Y-119697380D01*
X150725190Y-120078333D01*
X150201380Y-119173571D02*
X151201380Y-118935476D01*
X150487095Y-118745000D01*
X151201380Y-118554523D01*
X150201380Y-118316428D01*
X151201380Y-117364047D02*
X150725190Y-117697380D01*
X151201380Y-117935476D02*
X150201380Y-117935476D01*
X150201380Y-117554523D01*
X150249000Y-117459285D01*
X150296619Y-117411666D01*
X150391857Y-117364047D01*
X150534714Y-117364047D01*
X150629952Y-117411666D01*
X150677571Y-117459285D01*
X150725190Y-117554523D01*
X150725190Y-117935476D01*
X147216761Y-95337047D02*
X147264380Y-95194190D01*
X147264380Y-94956095D01*
X147216761Y-94860857D01*
X147169142Y-94813238D01*
X147073904Y-94765619D01*
X146978666Y-94765619D01*
X146883428Y-94813238D01*
X146835809Y-94860857D01*
X146788190Y-94956095D01*
X146740571Y-95146571D01*
X146692952Y-95241809D01*
X146645333Y-95289428D01*
X146550095Y-95337047D01*
X146454857Y-95337047D01*
X146359619Y-95289428D01*
X146312000Y-95241809D01*
X146264380Y-95146571D01*
X146264380Y-94908476D01*
X146312000Y-94765619D01*
X147264380Y-94337047D02*
X146264380Y-94337047D01*
X147264380Y-93908476D02*
X146740571Y-93908476D01*
X146645333Y-93956095D01*
X146597714Y-94051333D01*
X146597714Y-94194190D01*
X146645333Y-94289428D01*
X146692952Y-94337047D01*
X147264380Y-93432285D02*
X146597714Y-93432285D01*
X146264380Y-93432285D02*
X146312000Y-93479904D01*
X146359619Y-93432285D01*
X146312000Y-93384666D01*
X146264380Y-93432285D01*
X146359619Y-93432285D01*
X147216761Y-92575142D02*
X147264380Y-92670380D01*
X147264380Y-92860857D01*
X147216761Y-92956095D01*
X147121523Y-93003714D01*
X146740571Y-93003714D01*
X146645333Y-92956095D01*
X146597714Y-92860857D01*
X146597714Y-92670380D01*
X146645333Y-92575142D01*
X146740571Y-92527523D01*
X146835809Y-92527523D01*
X146931047Y-93003714D01*
X147264380Y-91956095D02*
X147216761Y-92051333D01*
X147121523Y-92098952D01*
X146264380Y-92098952D01*
X147264380Y-91146571D02*
X146264380Y-91146571D01*
X147216761Y-91146571D02*
X147264380Y-91241809D01*
X147264380Y-91432285D01*
X147216761Y-91527523D01*
X147169142Y-91575142D01*
X147073904Y-91622761D01*
X146788190Y-91622761D01*
X146692952Y-91575142D01*
X146645333Y-91527523D01*
X146597714Y-91432285D01*
X146597714Y-91241809D01*
X146645333Y-91146571D01*
X128643285Y-108640571D02*
X128976619Y-108640571D01*
X129119476Y-109164380D02*
X128643285Y-109164380D01*
X128643285Y-108164380D01*
X129119476Y-108164380D01*
X129548047Y-109164380D02*
X129548047Y-108164380D01*
X130119476Y-109164380D01*
X130119476Y-108164380D01*
X130548047Y-108878666D02*
X131024238Y-108878666D01*
X130452809Y-109164380D02*
X130786142Y-108164380D01*
X131119476Y-109164380D01*
X131452809Y-108783428D02*
X132214714Y-108783428D01*
X128643285Y-103560571D02*
X128976619Y-103560571D01*
X129119476Y-104084380D02*
X128643285Y-104084380D01*
X128643285Y-103084380D01*
X129119476Y-103084380D01*
X129548047Y-104084380D02*
X129548047Y-103084380D01*
X130119476Y-104084380D01*
X130119476Y-103084380D01*
X130548047Y-103798666D02*
X131024238Y-103798666D01*
X130452809Y-104084380D02*
X130786142Y-103084380D01*
X131119476Y-104084380D01*
X131452809Y-103703428D02*
X132214714Y-103703428D01*
X131833761Y-104084380D02*
X131833761Y-103322476D01*
X128809952Y-99004380D02*
X128809952Y-98004380D01*
X129048047Y-98004380D01*
X129190904Y-98052000D01*
X129286142Y-98147238D01*
X129333761Y-98242476D01*
X129381380Y-98432952D01*
X129381380Y-98575809D01*
X129333761Y-98766285D01*
X129286142Y-98861523D01*
X129190904Y-98956761D01*
X129048047Y-99004380D01*
X128809952Y-99004380D01*
X129809952Y-99004380D02*
X129809952Y-98004380D01*
X130857571Y-99004380D02*
X130524238Y-98528190D01*
X130286142Y-99004380D02*
X130286142Y-98004380D01*
X130667095Y-98004380D01*
X130762333Y-98052000D01*
X130809952Y-98099619D01*
X130857571Y-98194857D01*
X130857571Y-98337714D01*
X130809952Y-98432952D01*
X130762333Y-98480571D01*
X130667095Y-98528190D01*
X130286142Y-98528190D01*
X131286142Y-98623428D02*
X132048047Y-98623428D01*
X128809952Y-93924380D02*
X128809952Y-92924380D01*
X129048047Y-92924380D01*
X129190904Y-92972000D01*
X129286142Y-93067238D01*
X129333761Y-93162476D01*
X129381380Y-93352952D01*
X129381380Y-93495809D01*
X129333761Y-93686285D01*
X129286142Y-93781523D01*
X129190904Y-93876761D01*
X129048047Y-93924380D01*
X128809952Y-93924380D01*
X129809952Y-93924380D02*
X129809952Y-92924380D01*
X130857571Y-93924380D02*
X130524238Y-93448190D01*
X130286142Y-93924380D02*
X130286142Y-92924380D01*
X130667095Y-92924380D01*
X130762333Y-92972000D01*
X130809952Y-93019619D01*
X130857571Y-93114857D01*
X130857571Y-93257714D01*
X130809952Y-93352952D01*
X130762333Y-93400571D01*
X130667095Y-93448190D01*
X130286142Y-93448190D01*
X131286142Y-93543428D02*
X132048047Y-93543428D01*
X131667095Y-93924380D02*
X131667095Y-93162476D01*
X128619476Y-88844380D02*
X128619476Y-87844380D01*
X129000428Y-87844380D01*
X129095666Y-87892000D01*
X129143285Y-87939619D01*
X129190904Y-88034857D01*
X129190904Y-88177714D01*
X129143285Y-88272952D01*
X129095666Y-88320571D01*
X129000428Y-88368190D01*
X128619476Y-88368190D01*
X129619476Y-87844380D02*
X129619476Y-88653904D01*
X129667095Y-88749142D01*
X129714714Y-88796761D01*
X129809952Y-88844380D01*
X130000428Y-88844380D01*
X130095666Y-88796761D01*
X130143285Y-88749142D01*
X130190904Y-88653904D01*
X130190904Y-87844380D01*
X131143285Y-88844380D02*
X130667095Y-88844380D01*
X130667095Y-87844380D01*
X131476619Y-88463428D02*
X132238523Y-88463428D01*
X128619476Y-83764380D02*
X128619476Y-82764380D01*
X129000428Y-82764380D01*
X129095666Y-82812000D01*
X129143285Y-82859619D01*
X129190904Y-82954857D01*
X129190904Y-83097714D01*
X129143285Y-83192952D01*
X129095666Y-83240571D01*
X129000428Y-83288190D01*
X128619476Y-83288190D01*
X129619476Y-82764380D02*
X129619476Y-83573904D01*
X129667095Y-83669142D01*
X129714714Y-83716761D01*
X129809952Y-83764380D01*
X130000428Y-83764380D01*
X130095666Y-83716761D01*
X130143285Y-83669142D01*
X130190904Y-83573904D01*
X130190904Y-82764380D01*
X131143285Y-83764380D02*
X130667095Y-83764380D01*
X130667095Y-82764380D01*
X131476619Y-83383428D02*
X132238523Y-83383428D01*
X131857571Y-83764380D02*
X131857571Y-83002476D01*
D11*
%TO.C,R1*%
X139577578Y-118035000D02*
X139060422Y-118035000D01*
X139577578Y-119455000D02*
X139060422Y-119455000D01*
%TO.C,D1*%
X149894000Y-117785000D02*
X147209000Y-117785000D01*
X149894000Y-119705000D02*
X149894000Y-117785000D01*
X147209000Y-119705000D02*
X149894000Y-119705000D01*
%TO.C,J1*%
X134150000Y-98289000D02*
X146080000Y-98289000D01*
X134150000Y-98289000D02*
X134150000Y-114309000D01*
X134150000Y-114309000D02*
X146080000Y-114309000D01*
X153020000Y-98289000D02*
X153020000Y-114309000D01*
X149580000Y-98289000D02*
X153020000Y-98289000D01*
X138430000Y-114677000D02*
X137922000Y-115185000D01*
X137922000Y-115185000D02*
X138938000Y-115185000D01*
X138938000Y-115185000D02*
X138430000Y-114677000D01*
X149580000Y-114309000D02*
X153020000Y-114309000D01*
%TO.C,JP1*%
X145602000Y-91888000D02*
X145602000Y-93218000D01*
X144272000Y-91888000D02*
X145602000Y-91888000D01*
X143002000Y-91888000D02*
X143002000Y-94548000D01*
X143002000Y-94548000D02*
X140402000Y-94548000D01*
X143002000Y-91888000D02*
X140402000Y-91888000D01*
X140402000Y-91888000D02*
X140402000Y-94548000D01*
%TO.C,J2*%
X125289000Y-81982000D02*
X126619000Y-81982000D01*
X125289000Y-83312000D02*
X125289000Y-81982000D01*
X125289000Y-84582000D02*
X127949000Y-84582000D01*
X127949000Y-84582000D02*
X127949000Y-130302000D01*
X125289000Y-84582000D02*
X125289000Y-130302000D01*
X125289000Y-130302000D02*
X127949000Y-130302000D01*
D12*
%TO.C,G\u002A\u002A\u002A*%
G36*
X152869341Y-125727123D02*
G01*
X152878872Y-125750357D01*
X152886699Y-125795253D01*
X152892988Y-125867209D01*
X152897907Y-125971627D01*
X152901623Y-126113908D01*
X152904301Y-126299453D01*
X152906110Y-126533661D01*
X152907216Y-126821934D01*
X152907785Y-127169673D01*
X152907986Y-127582278D01*
X152908000Y-127779399D01*
X152908000Y-129867637D01*
X152790071Y-129992424D01*
X152713788Y-130054318D01*
X152577658Y-130143670D01*
X152387489Y-130257017D01*
X152149086Y-130390893D01*
X151878970Y-130536177D01*
X151660155Y-130651479D01*
X151463360Y-130754641D01*
X151297414Y-130841081D01*
X151171144Y-130906213D01*
X151093380Y-130945454D01*
X151072115Y-130955143D01*
X151068520Y-130920283D01*
X151064689Y-130821408D01*
X151060793Y-130667070D01*
X151057002Y-130465825D01*
X151053486Y-130226226D01*
X151050414Y-129956828D01*
X151048860Y-129784928D01*
X151039285Y-128614714D01*
X150956733Y-128603000D01*
X150896839Y-128616186D01*
X150778886Y-128662403D01*
X150608149Y-128739251D01*
X150389905Y-128844327D01*
X150129427Y-128975230D01*
X150052894Y-129014509D01*
X149826412Y-129131419D01*
X149619278Y-129238721D01*
X149440879Y-129331522D01*
X149300602Y-129404929D01*
X149207834Y-129454048D01*
X149173875Y-129472724D01*
X149130504Y-129478607D01*
X149054408Y-129457726D01*
X148936924Y-129406652D01*
X148769392Y-129321950D01*
X148698857Y-129284543D01*
X148345083Y-129097429D01*
X148035177Y-128937828D01*
X147772519Y-128807352D01*
X147560487Y-128707611D01*
X147402460Y-128640219D01*
X147301816Y-128606784D01*
X147271061Y-128603588D01*
X147249580Y-128607991D01*
X147232386Y-128619379D01*
X147218925Y-128645199D01*
X147208646Y-128692901D01*
X147200997Y-128769931D01*
X147195424Y-128883737D01*
X147191375Y-129041769D01*
X147188297Y-129251474D01*
X147185638Y-129520299D01*
X147183426Y-129784928D01*
X147180315Y-130067897D01*
X147175945Y-130326032D01*
X147170581Y-130550811D01*
X147164489Y-130733708D01*
X147157934Y-130866200D01*
X147151179Y-130939762D01*
X147147140Y-130952066D01*
X147109058Y-130934749D01*
X147016059Y-130887676D01*
X146877107Y-130815529D01*
X146701163Y-130722988D01*
X146497193Y-130614735D01*
X146326086Y-130523301D01*
X146060676Y-130378469D01*
X145831943Y-130248403D01*
X145646745Y-130137241D01*
X145511942Y-130049121D01*
X145434392Y-129988180D01*
X145428014Y-129981519D01*
X145324286Y-129865426D01*
X145324286Y-127778294D01*
X145324379Y-127336494D01*
X145324771Y-126961864D01*
X145325628Y-126649001D01*
X145327118Y-126392503D01*
X145329406Y-126186968D01*
X145332661Y-126026993D01*
X145337050Y-125907178D01*
X145342738Y-125822119D01*
X145349894Y-125766414D01*
X145358684Y-125734663D01*
X145369275Y-125721461D01*
X145381835Y-125721408D01*
X145387786Y-125724032D01*
X145430943Y-125746653D01*
X145532319Y-125799937D01*
X145685922Y-125880731D01*
X145885761Y-125985882D01*
X146125843Y-126112237D01*
X146400176Y-126256641D01*
X146702770Y-126415942D01*
X147027632Y-126586986D01*
X147263280Y-126711070D01*
X147599061Y-126887516D01*
X147916085Y-127053387D01*
X148208466Y-127205652D01*
X148470320Y-127341282D01*
X148695760Y-127457245D01*
X148878902Y-127550511D01*
X149013860Y-127618048D01*
X149094749Y-127656826D01*
X149116143Y-127665238D01*
X149154973Y-127648770D01*
X149252061Y-127601386D01*
X149401521Y-127526117D01*
X149597467Y-127425994D01*
X149834013Y-127304048D01*
X150105276Y-127163309D01*
X150405369Y-127006808D01*
X150728406Y-126837576D01*
X150969005Y-126711070D01*
X151305810Y-126533724D01*
X151624511Y-126365930D01*
X151919114Y-126210841D01*
X152183629Y-126071612D01*
X152412063Y-125951394D01*
X152598425Y-125853343D01*
X152736723Y-125780611D01*
X152820965Y-125736352D01*
X152844500Y-125724032D01*
X152857940Y-125720148D01*
X152869341Y-125727123D01*
G37*
X152869341Y-125727123D02*
X152878872Y-125750357D01*
X152886699Y-125795253D01*
X152892988Y-125867209D01*
X152897907Y-125971627D01*
X152901623Y-126113908D01*
X152904301Y-126299453D01*
X152906110Y-126533661D01*
X152907216Y-126821934D01*
X152907785Y-127169673D01*
X152907986Y-127582278D01*
X152908000Y-127779399D01*
X152908000Y-129867637D01*
X152790071Y-129992424D01*
X152713788Y-130054318D01*
X152577658Y-130143670D01*
X152387489Y-130257017D01*
X152149086Y-130390893D01*
X151878970Y-130536177D01*
X151660155Y-130651479D01*
X151463360Y-130754641D01*
X151297414Y-130841081D01*
X151171144Y-130906213D01*
X151093380Y-130945454D01*
X151072115Y-130955143D01*
X151068520Y-130920283D01*
X151064689Y-130821408D01*
X151060793Y-130667070D01*
X151057002Y-130465825D01*
X151053486Y-130226226D01*
X151050414Y-129956828D01*
X151048860Y-129784928D01*
X151039285Y-128614714D01*
X150956733Y-128603000D01*
X150896839Y-128616186D01*
X150778886Y-128662403D01*
X150608149Y-128739251D01*
X150389905Y-128844327D01*
X150129427Y-128975230D01*
X150052894Y-129014509D01*
X149826412Y-129131419D01*
X149619278Y-129238721D01*
X149440879Y-129331522D01*
X149300602Y-129404929D01*
X149207834Y-129454048D01*
X149173875Y-129472724D01*
X149130504Y-129478607D01*
X149054408Y-129457726D01*
X148936924Y-129406652D01*
X148769392Y-129321950D01*
X148698857Y-129284543D01*
X148345083Y-129097429D01*
X148035177Y-128937828D01*
X147772519Y-128807352D01*
X147560487Y-128707611D01*
X147402460Y-128640219D01*
X147301816Y-128606784D01*
X147271061Y-128603588D01*
X147249580Y-128607991D01*
X147232386Y-128619379D01*
X147218925Y-128645199D01*
X147208646Y-128692901D01*
X147200997Y-128769931D01*
X147195424Y-128883737D01*
X147191375Y-129041769D01*
X147188297Y-129251474D01*
X147185638Y-129520299D01*
X147183426Y-129784928D01*
X147180315Y-130067897D01*
X147175945Y-130326032D01*
X147170581Y-130550811D01*
X147164489Y-130733708D01*
X147157934Y-130866200D01*
X147151179Y-130939762D01*
X147147140Y-130952066D01*
X147109058Y-130934749D01*
X147016059Y-130887676D01*
X146877107Y-130815529D01*
X146701163Y-130722988D01*
X146497193Y-130614735D01*
X146326086Y-130523301D01*
X146060676Y-130378469D01*
X145831943Y-130248403D01*
X145646745Y-130137241D01*
X145511942Y-130049121D01*
X145434392Y-129988180D01*
X145428014Y-129981519D01*
X145324286Y-129865426D01*
X145324286Y-127778294D01*
X145324379Y-127336494D01*
X145324771Y-126961864D01*
X145325628Y-126649001D01*
X145327118Y-126392503D01*
X145329406Y-126186968D01*
X145332661Y-126026993D01*
X145337050Y-125907178D01*
X145342738Y-125822119D01*
X145349894Y-125766414D01*
X145358684Y-125734663D01*
X145369275Y-125721461D01*
X145381835Y-125721408D01*
X145387786Y-125724032D01*
X145430943Y-125746653D01*
X145532319Y-125799937D01*
X145685922Y-125880731D01*
X145885761Y-125985882D01*
X146125843Y-126112237D01*
X146400176Y-126256641D01*
X146702770Y-126415942D01*
X147027632Y-126586986D01*
X147263280Y-126711070D01*
X147599061Y-126887516D01*
X147916085Y-127053387D01*
X148208466Y-127205652D01*
X148470320Y-127341282D01*
X148695760Y-127457245D01*
X148878902Y-127550511D01*
X149013860Y-127618048D01*
X149094749Y-127656826D01*
X149116143Y-127665238D01*
X149154973Y-127648770D01*
X149252061Y-127601386D01*
X149401521Y-127526117D01*
X149597467Y-127425994D01*
X149834013Y-127304048D01*
X150105276Y-127163309D01*
X150405369Y-127006808D01*
X150728406Y-126837576D01*
X150969005Y-126711070D01*
X151305810Y-126533724D01*
X151624511Y-126365930D01*
X151919114Y-126210841D01*
X152183629Y-126071612D01*
X152412063Y-125951394D01*
X152598425Y-125853343D01*
X152736723Y-125780611D01*
X152820965Y-125736352D01*
X152844500Y-125724032D01*
X152857940Y-125720148D01*
X152869341Y-125727123D01*
G36*
X152908000Y-124499395D02*
G01*
X152743284Y-124675489D01*
X152700272Y-124718018D01*
X152647154Y-124762590D01*
X152578404Y-124812334D01*
X152488496Y-124870381D01*
X152371904Y-124939860D01*
X152223101Y-125023900D01*
X152036562Y-125125632D01*
X151806761Y-125248185D01*
X151528171Y-125394689D01*
X151195267Y-125568273D01*
X150855986Y-125744363D01*
X150528691Y-125913702D01*
X150220762Y-126072459D01*
X149938211Y-126217571D01*
X149687052Y-126345978D01*
X149473300Y-126454617D01*
X149302967Y-126540428D01*
X149182067Y-126600347D01*
X149116614Y-126631315D01*
X149106630Y-126634995D01*
X149070227Y-126618323D01*
X148975508Y-126571213D01*
X148828516Y-126496762D01*
X148635294Y-126398069D01*
X148401883Y-126278233D01*
X148134325Y-126140351D01*
X147838664Y-125987522D01*
X147520940Y-125822844D01*
X147374428Y-125746765D01*
X146990739Y-125547061D01*
X146666130Y-125377172D01*
X146395037Y-125233938D01*
X146171891Y-125114202D01*
X145991126Y-125014804D01*
X145847175Y-124932585D01*
X145734473Y-124864386D01*
X145647451Y-124807049D01*
X145580544Y-124757414D01*
X145528185Y-124712322D01*
X145496643Y-124681182D01*
X145324286Y-124501681D01*
X145324286Y-121961019D01*
X145696214Y-122135203D01*
X145983921Y-122271729D01*
X146256105Y-122404283D01*
X146504567Y-122528616D01*
X146721107Y-122640482D01*
X146897525Y-122735631D01*
X147025622Y-122809816D01*
X147097197Y-122858787D01*
X147102806Y-122863949D01*
X147137497Y-122908628D01*
X147159083Y-122969365D01*
X147170477Y-123062854D01*
X147174594Y-123205790D01*
X147174857Y-123276694D01*
X147177693Y-123449363D01*
X147187829Y-123565536D01*
X147207707Y-123641124D01*
X147238357Y-123690432D01*
X147283256Y-123724187D01*
X147380818Y-123786543D01*
X147521213Y-123871901D01*
X147694609Y-123974659D01*
X147891174Y-124089218D01*
X148101076Y-124209977D01*
X148314485Y-124331336D01*
X148521567Y-124447695D01*
X148712493Y-124553453D01*
X148877430Y-124643010D01*
X149006546Y-124710765D01*
X149090011Y-124751119D01*
X149116143Y-124760065D01*
X149161314Y-124742514D01*
X149259103Y-124693593D01*
X149399678Y-124618903D01*
X149573207Y-124524045D01*
X149769858Y-124414618D01*
X149979800Y-124296223D01*
X150193202Y-124174461D01*
X150400231Y-124054931D01*
X150591057Y-123943234D01*
X150755847Y-123844970D01*
X150884770Y-123765740D01*
X150967995Y-123711143D01*
X150993928Y-123690432D01*
X151025503Y-123638896D01*
X151044983Y-123562108D01*
X151054809Y-123444154D01*
X151057428Y-123276694D01*
X151059541Y-123110543D01*
X151067820Y-123000195D01*
X151085182Y-122928955D01*
X151114540Y-122880130D01*
X151129479Y-122863949D01*
X151191353Y-122819359D01*
X151311047Y-122748884D01*
X151480360Y-122656771D01*
X151691093Y-122547269D01*
X151935047Y-122424627D01*
X152204022Y-122293091D01*
X152489817Y-122156911D01*
X152536071Y-122135203D01*
X152908000Y-121961019D01*
X152908000Y-124499395D01*
G37*
X152908000Y-124499395D02*
X152743284Y-124675489D01*
X152700272Y-124718018D01*
X152647154Y-124762590D01*
X152578404Y-124812334D01*
X152488496Y-124870381D01*
X152371904Y-124939860D01*
X152223101Y-125023900D01*
X152036562Y-125125632D01*
X151806761Y-125248185D01*
X151528171Y-125394689D01*
X151195267Y-125568273D01*
X150855986Y-125744363D01*
X150528691Y-125913702D01*
X150220762Y-126072459D01*
X149938211Y-126217571D01*
X149687052Y-126345978D01*
X149473300Y-126454617D01*
X149302967Y-126540428D01*
X149182067Y-126600347D01*
X149116614Y-126631315D01*
X149106630Y-126634995D01*
X149070227Y-126618323D01*
X148975508Y-126571213D01*
X148828516Y-126496762D01*
X148635294Y-126398069D01*
X148401883Y-126278233D01*
X148134325Y-126140351D01*
X147838664Y-125987522D01*
X147520940Y-125822844D01*
X147374428Y-125746765D01*
X146990739Y-125547061D01*
X146666130Y-125377172D01*
X146395037Y-125233938D01*
X146171891Y-125114202D01*
X145991126Y-125014804D01*
X145847175Y-124932585D01*
X145734473Y-124864386D01*
X145647451Y-124807049D01*
X145580544Y-124757414D01*
X145528185Y-124712322D01*
X145496643Y-124681182D01*
X145324286Y-124501681D01*
X145324286Y-121961019D01*
X145696214Y-122135203D01*
X145983921Y-122271729D01*
X146256105Y-122404283D01*
X146504567Y-122528616D01*
X146721107Y-122640482D01*
X146897525Y-122735631D01*
X147025622Y-122809816D01*
X147097197Y-122858787D01*
X147102806Y-122863949D01*
X147137497Y-122908628D01*
X147159083Y-122969365D01*
X147170477Y-123062854D01*
X147174594Y-123205790D01*
X147174857Y-123276694D01*
X147177693Y-123449363D01*
X147187829Y-123565536D01*
X147207707Y-123641124D01*
X147238357Y-123690432D01*
X147283256Y-123724187D01*
X147380818Y-123786543D01*
X147521213Y-123871901D01*
X147694609Y-123974659D01*
X147891174Y-124089218D01*
X148101076Y-124209977D01*
X148314485Y-124331336D01*
X148521567Y-124447695D01*
X148712493Y-124553453D01*
X148877430Y-124643010D01*
X149006546Y-124710765D01*
X149090011Y-124751119D01*
X149116143Y-124760065D01*
X149161314Y-124742514D01*
X149259103Y-124693593D01*
X149399678Y-124618903D01*
X149573207Y-124524045D01*
X149769858Y-124414618D01*
X149979800Y-124296223D01*
X150193202Y-124174461D01*
X150400231Y-124054931D01*
X150591057Y-123943234D01*
X150755847Y-123844970D01*
X150884770Y-123765740D01*
X150967995Y-123711143D01*
X150993928Y-123690432D01*
X151025503Y-123638896D01*
X151044983Y-123562108D01*
X151054809Y-123444154D01*
X151057428Y-123276694D01*
X151059541Y-123110543D01*
X151067820Y-123000195D01*
X151085182Y-122928955D01*
X151114540Y-122880130D01*
X151129479Y-122863949D01*
X151191353Y-122819359D01*
X151311047Y-122748884D01*
X151480360Y-122656771D01*
X151691093Y-122547269D01*
X151935047Y-122424627D01*
X152204022Y-122293091D01*
X152489817Y-122156911D01*
X152536071Y-122135203D01*
X152908000Y-121961019D01*
X152908000Y-124499395D01*
D11*
%TO.C,R2*%
X138981422Y-82602000D02*
X139498578Y-82602000D01*
X138981422Y-84022000D02*
X139498578Y-84022000D01*
%TO.C,R3*%
X147363422Y-86562000D02*
X147880578Y-86562000D01*
X147363422Y-85142000D02*
X147880578Y-85142000D01*
%TO.C,R4*%
X138981422Y-87301000D02*
X139498578Y-87301000D01*
X138981422Y-88721000D02*
X139498578Y-88721000D01*
%TO.C,R5*%
X139011422Y-122607000D02*
X139528578Y-122607000D01*
X139011422Y-124027000D02*
X139528578Y-124027000D01*
%TO.C,R6*%
X139011422Y-129234000D02*
X139528578Y-129234000D01*
X139011422Y-127814000D02*
X139528578Y-127814000D01*
%TO.C,R1*%
D10*
X137231380Y-118911666D02*
X136755190Y-119245000D01*
X137231380Y-119483095D02*
X136231380Y-119483095D01*
X136231380Y-119102142D01*
X136279000Y-119006904D01*
X136326619Y-118959285D01*
X136421857Y-118911666D01*
X136564714Y-118911666D01*
X136659952Y-118959285D01*
X136707571Y-119006904D01*
X136755190Y-119102142D01*
X136755190Y-119483095D01*
X137231380Y-117959285D02*
X137231380Y-118530714D01*
X137231380Y-118245000D02*
X136231380Y-118245000D01*
X136374238Y-118340238D01*
X136469476Y-118435476D01*
X136517095Y-118530714D01*
%TO.C,D1*%
X146121380Y-119483095D02*
X145121380Y-119483095D01*
X145121380Y-119245000D01*
X145169000Y-119102142D01*
X145264238Y-119006904D01*
X145359476Y-118959285D01*
X145549952Y-118911666D01*
X145692809Y-118911666D01*
X145883285Y-118959285D01*
X145978523Y-119006904D01*
X146073761Y-119102142D01*
X146121380Y-119245000D01*
X146121380Y-119483095D01*
X146121380Y-117959285D02*
X146121380Y-118530714D01*
X146121380Y-118245000D02*
X145121380Y-118245000D01*
X145264238Y-118340238D01*
X145359476Y-118435476D01*
X145407095Y-118530714D01*
%TO.C,J1*%
X144232380Y-106632333D02*
X144946666Y-106632333D01*
X145089523Y-106679952D01*
X145184761Y-106775190D01*
X145232380Y-106918047D01*
X145232380Y-107013285D01*
X145232380Y-105632333D02*
X145232380Y-106203761D01*
X145232380Y-105918047D02*
X144232380Y-105918047D01*
X144375238Y-106013285D01*
X144470476Y-106108523D01*
X144518095Y-106203761D01*
%TO.C,JP1*%
X138644380Y-94051333D02*
X139358666Y-94051333D01*
X139501523Y-94098952D01*
X139596761Y-94194190D01*
X139644380Y-94337047D01*
X139644380Y-94432285D01*
X139644380Y-93575142D02*
X138644380Y-93575142D01*
X138644380Y-93194190D01*
X138692000Y-93098952D01*
X138739619Y-93051333D01*
X138834857Y-93003714D01*
X138977714Y-93003714D01*
X139072952Y-93051333D01*
X139120571Y-93098952D01*
X139168190Y-93194190D01*
X139168190Y-93575142D01*
X139644380Y-92051333D02*
X139644380Y-92622761D01*
X139644380Y-92337047D02*
X138644380Y-92337047D01*
X138787238Y-92432285D01*
X138882476Y-92527523D01*
X138930095Y-92622761D01*
%TO.C,J2*%
X126198380Y-106505333D02*
X126912666Y-106505333D01*
X127055523Y-106552952D01*
X127150761Y-106648190D01*
X127198380Y-106791047D01*
X127198380Y-106886285D01*
X126293619Y-106076761D02*
X126246000Y-106029142D01*
X126198380Y-105933904D01*
X126198380Y-105695809D01*
X126246000Y-105600571D01*
X126293619Y-105552952D01*
X126388857Y-105505333D01*
X126484095Y-105505333D01*
X126626952Y-105552952D01*
X127198380Y-106124380D01*
X127198380Y-105505333D01*
%TO.C,R2*%
X137230880Y-83351666D02*
X136754690Y-83685000D01*
X137230880Y-83923095D02*
X136230880Y-83923095D01*
X136230880Y-83542142D01*
X136278500Y-83446904D01*
X136326119Y-83399285D01*
X136421357Y-83351666D01*
X136564214Y-83351666D01*
X136659452Y-83399285D01*
X136707071Y-83446904D01*
X136754690Y-83542142D01*
X136754690Y-83923095D01*
X136326119Y-82970714D02*
X136278500Y-82923095D01*
X136230880Y-82827857D01*
X136230880Y-82589761D01*
X136278500Y-82494523D01*
X136326119Y-82446904D01*
X136421357Y-82399285D01*
X136516595Y-82399285D01*
X136659452Y-82446904D01*
X137230880Y-83018333D01*
X137230880Y-82399285D01*
%TO.C,R3*%
X145612880Y-85891666D02*
X145136690Y-86225000D01*
X145612880Y-86463095D02*
X144612880Y-86463095D01*
X144612880Y-86082142D01*
X144660500Y-85986904D01*
X144708119Y-85939285D01*
X144803357Y-85891666D01*
X144946214Y-85891666D01*
X145041452Y-85939285D01*
X145089071Y-85986904D01*
X145136690Y-86082142D01*
X145136690Y-86463095D01*
X144612880Y-85558333D02*
X144612880Y-84939285D01*
X144993833Y-85272619D01*
X144993833Y-85129761D01*
X145041452Y-85034523D01*
X145089071Y-84986904D01*
X145184309Y-84939285D01*
X145422404Y-84939285D01*
X145517642Y-84986904D01*
X145565261Y-85034523D01*
X145612880Y-85129761D01*
X145612880Y-85415476D01*
X145565261Y-85510714D01*
X145517642Y-85558333D01*
%TO.C,R4*%
X137230880Y-88177666D02*
X136754690Y-88511000D01*
X137230880Y-88749095D02*
X136230880Y-88749095D01*
X136230880Y-88368142D01*
X136278500Y-88272904D01*
X136326119Y-88225285D01*
X136421357Y-88177666D01*
X136564214Y-88177666D01*
X136659452Y-88225285D01*
X136707071Y-88272904D01*
X136754690Y-88368142D01*
X136754690Y-88749095D01*
X136564214Y-87320523D02*
X137230880Y-87320523D01*
X136183261Y-87558619D02*
X136897547Y-87796714D01*
X136897547Y-87177666D01*
%TO.C,R5*%
X137230880Y-123483666D02*
X136754690Y-123817000D01*
X137230880Y-124055095D02*
X136230880Y-124055095D01*
X136230880Y-123674142D01*
X136278500Y-123578904D01*
X136326119Y-123531285D01*
X136421357Y-123483666D01*
X136564214Y-123483666D01*
X136659452Y-123531285D01*
X136707071Y-123578904D01*
X136754690Y-123674142D01*
X136754690Y-124055095D01*
X136230880Y-122578904D02*
X136230880Y-123055095D01*
X136707071Y-123102714D01*
X136659452Y-123055095D01*
X136611833Y-122959857D01*
X136611833Y-122721761D01*
X136659452Y-122626523D01*
X136707071Y-122578904D01*
X136802309Y-122531285D01*
X137040404Y-122531285D01*
X137135642Y-122578904D01*
X137183261Y-122626523D01*
X137230880Y-122721761D01*
X137230880Y-122959857D01*
X137183261Y-123055095D01*
X137135642Y-123102714D01*
%TO.C,R6*%
X137230880Y-128690666D02*
X136754690Y-129024000D01*
X137230880Y-129262095D02*
X136230880Y-129262095D01*
X136230880Y-128881142D01*
X136278500Y-128785904D01*
X136326119Y-128738285D01*
X136421357Y-128690666D01*
X136564214Y-128690666D01*
X136659452Y-128738285D01*
X136707071Y-128785904D01*
X136754690Y-128881142D01*
X136754690Y-129262095D01*
X136230880Y-127833523D02*
X136230880Y-128024000D01*
X136278500Y-128119238D01*
X136326119Y-128166857D01*
X136468976Y-128262095D01*
X136659452Y-128309714D01*
X137040404Y-128309714D01*
X137135642Y-128262095D01*
X137183261Y-128214476D01*
X137230880Y-128119238D01*
X137230880Y-127928761D01*
X137183261Y-127833523D01*
X137135642Y-127785904D01*
X137040404Y-127738285D01*
X136802309Y-127738285D01*
X136707071Y-127785904D01*
X136659452Y-127833523D01*
X136611833Y-127928761D01*
X136611833Y-128119238D01*
X136659452Y-128214476D01*
X136707071Y-128262095D01*
X136802309Y-128309714D01*
%TD*%
M02*
