M48
; DRILL file {KiCad (5.1.6)-1} date 07/09/20 15:12:19
; FORMAT={-:-/ absolute / metric / decimal}
; #@! TF.CreationDate,2020-07-09T15:12:19-03:00
; #@! TF.GenerationSoftware,Kicad,Pcbnew,(5.1.6)-1
FMAT,2
METRIC
T1C0.900
T2C1.000
T3C1.600
T4C3.250
%
G90
G05
T1
X135.89Y-101.854
X135.89Y-104.394
X135.89Y-106.934
X135.89Y-109.474
X138.43Y-103.124
X138.43Y-105.664
X138.43Y-108.204
X138.43Y-110.744
T2
X126.619Y-83.312
X126.619Y-88.392
X126.619Y-93.472
X126.619Y-98.552
X126.619Y-103.632
X126.619Y-108.712
X126.619Y-113.792
X126.619Y-118.872
X126.619Y-123.952
X126.619Y-129.032
X141.732Y-93.218
X144.272Y-93.218
T3
X147.83Y-98.529
X147.83Y-114.069
T4
X144.78Y-100.584
X144.78Y-112.014
T0
M30
